#!OML:ASF I:\Actors\actors\Patient Classification 2\Patient 1\Session 1\actor1.ASF
:FULLY-SPECIFIED
:DEGREES
558
root -0.631626 18.7392 5.59469 9.95993 0.131984 -0.590072
lowerback 24.1317 -3.71904 1.62171
upperback 2.94684 -5.04197 -5.38556
thorax -10.8501 -2.56689 -5.3098
lowerneck -10.5687 -7.02126 -10.4312
upperneck 19.6073 -3.476 -20.4154
head 7.90801 -4.23516 -5.53528
rclavicle 2.22639e-014 4.13472e-014
rhumerus 43.2224 19.3703 -48.1338
rradius 124.161
rwrist 9.49488
rhand 20.0262 -40.8142
rfingers 7.12502
rthumb 44.5595 295.515
lclavicle 2.22639e-014 4.13472e-014
lhumerus -36.5703 -12.6848 84.1603
lradius 119.277
lwrist -1.77984
lhand -1.12974 -6.78309
lfingers 7.12502
lthumb 24.5078 21.6687
rfemur -7.72552 2.43222 14.1029
rtibia 9.80343
rfoot -20.7296 -14.3699
rtoes -9.23634
lfemur -19.6945 0.120768 -13.1686
ltibia 28.1848
lfoot -17.9043 6.20091
ltoes -56.3243
559
root -0.639536 18.7386 5.58202 9.94874 -0.0848647 -0.740325
lowerback 24.4287 -3.68532 1.47378
upperback 3.01642 -5.0495 -5.50524
thorax -10.9303 -2.5657 -5.34979
lowerneck -10.4647 -6.86962 -10.3287
upperneck 19.0065 -3.37462 -20.6886
head 7.68301 -4.14321 -5.59158
rclavicle -3.97569e-014 -5.08889e-014
rhumerus 42.9694 19.7043 -48.2545
rradius 124.614
rwrist 10.505
rhand 19.068 -40.3907
rfingers 7.12502
rthumb 43.6659 295.603
lclavicle -3.97569e-014 -5.08889e-014
lhumerus -36.369 -12.7188 84.0541
lradius 119.388
lwrist -1.7741
lhand -1.11422 -6.71595
lfingers 7.12502
lthumb 24.5227 21.7338
rfemur -7.88622 2.64596 14.2516
rtibia 9.95039
rfoot -20.6567 -14.3587
rtoes -9.56018
lfemur -19.7248 0.181911 -12.9922
ltibia 28.2833
lfoot -17.9544 6.35814
ltoes -56.263
560
root -0.646099 18.7368 5.57001 9.95432 -0.262116 -0.82883
lowerback 24.7065 -3.65509 1.27185
upperback 3.05133 -5.07446 -5.5909
thorax -11.0333 -2.56984 -5.31413
lowerneck -10.4364 -6.71044 -10.2582
upperneck 18.5279 -3.20878 -21.0284
head 7.52159 -4.04282 -5.67402
rclavicle -5.56597e-015 5.24792e-014
rhumerus 42.8475 20.2531 -48.0042
rradius 125.155
rwrist 12.2287
rhand 16.9843 -40.6229
rfingers 7.12502
rthumb 41.716 294.693
lclavicle -5.56597e-015 5.24792e-014
lhumerus -36.2815 -12.7395 84.0491
lradius 119.517
lwrist -1.70834
lhand -1.11276 -6.56709
lfingers 7.12502
lthumb 24.5241 21.8825
rfemur -8.03277 2.80671 14.3317
rtibia 10.0567
rfoot -20.6348 -14.3138
rtoes -9.46944
lfemur -19.7789 0.187915 -12.8818
ltibia 28.3747
lfoot -18.0105 6.52923
ltoes -56.2647
561
root -0.652269 18.7354 5.55874 10.0177 -0.356854 -0.870316
lowerback 24.9354 -3.63689 1.08051
upperback 3.05416 -5.1138 -5.66894
thorax -11.1484 -2.58157 -5.27228
lowerneck -10.4403 -6.54775 -10.1903
upperneck 18.084 -3.03534 -21.3221
head 7.38033 -3.93901 -5.74378
rclavicle 4.37326e-014 4.45278e-014
rhumerus 42.7641 20.6622 -47.8022
rradius 125.741
rwrist 13.2669
rhand 15.1557 -40.1722
rfingers 7.12502
rthumb 39.9982 294.601
lclavicle 4.37326e-014 4.45278e-014
lhumerus -36.1766 -12.7666 84.0727
lradius 119.53
lwrist -1.74821
lhand -1.05806 -6.59663
lfingers 7.12502
lthumb 24.5766 21.8459
rfemur -8.21709 2.79945 14.3781
rtibia 10.1561
rfoot -20.5824 -14.1956
rtoes -9.13151
lfemur -19.9019 0.212602 -12.8223
ltibia 28.4396
lfoot -18.0266 6.60715
ltoes -56.2396
562
root -0.659218 18.7352 5.54833 10.0977 -0.398353 -0.896686
lowerback 25.1268 -3.5954 0.941191
upperback 3.09002 -5.10904 -5.76167
thorax -11.2065 -2.57469 -5.29436
lowerneck -10.4393 -6.42392 -10.1773
upperneck 17.5957 -2.95152 -21.4101
head 7.22098 -3.85804 -5.73814
rclavicle 2.54444e-014 -2.70347e-014
rhumerus 42.5881 20.8568 -47.6685
rradius 126.184
rwrist 14.272
rhand 13.5269 -39.6154
rfingers 7.12502
rthumb 38.4633 294.713
lclavicle 2.54444e-014 -2.70347e-014
lhumerus -35.8865 -12.94 84.0733
lradius 119.436
lwrist -1.81503
lhand -0.933648 -6.67825
lfingers 7.12502
lthumb 24.6958 21.748
rfemur -8.39177 2.77659 14.4162
rtibia 10.2386
rfoot -20.5162 -14.1264
rtoes -9.01639
lfemur -20.041 0.251969 -12.7784
ltibia 28.4776
lfoot -18.0415 6.64608
ltoes -56.1895
563
root -0.665017 18.7364 5.53904 10.1407 -0.413395 -0.909891
lowerback 25.3122 -3.54075 0.832204
upperback 3.1428 -5.07831 -5.85361
thorax -11.2415 -2.5567 -5.3429
lowerneck -10.4442 -6.30665 -10.0803
upperneck 17.1194 -2.88011 -21.5562
head 7.06272 -3.78276 -5.768
rclavicle 2.38542e-015 9.54166e-015
rhumerus 42.4024 20.9476 -47.4748
rradius 126.942
rwrist 14.268
rhand 12.4694 -39.6886
rfingers 7.12502
rthumb 37.4645 294.368
lclavicle 2.38542e-015 9.54166e-015
lhumerus -35.6131 -13.2075 84.0795
lradius 119.321
lwrist -1.80681
lhand -0.952473 -6.68822
lfingers 7.12502
lthumb 24.6778 21.7405
rfemur -8.48638 2.78065 14.444
rtibia 10.2683
rfoot -20.4726 -14.1314
rtoes -9.16458
lfemur -20.1267 0.234854 -12.7443
ltibia 28.4965
lfoot -18.0525 6.71891
ltoes -56.1976
564
root -0.668383 18.7378 5.53041 10.1684 -0.424843 -0.956718
lowerback 25.4887 -3.51346 0.769223
upperback 3.15124 -5.07107 -5.92193
thorax -11.3268 -2.55235 -5.38326
lowerneck -10.3814 -6.12672 -9.85583
upperneck 16.6196 -2.74342 -21.8506
head 6.88394 -3.67478 -5.85913
rclavicle -3.89618e-014 -7.95139e-015
rhumerus 42.194 21.3245 -47.1623
rradius 127.196
rwrist 16.4767
rhand 9.90506 -39.1929
rfingers 7.12502
rthumb 35.0363 294.26
lclavicle -3.89618e-014 -7.95139e-015
lhumerus -35.5 -13.3673 84.089
lradius 119.27
lwrist -1.81981
lhand -1.04182 -6.6911
lfingers 7.12502
lthumb 24.5921 21.7493
rfemur -8.54008 2.78912 14.5034
rtibia 10.2477
rfoot -20.4398 -14.1394
rtoes -9.2284
lfemur -20.1742 0.169393 -12.6678
ltibia 28.4962
lfoot -18.073 6.78267
ltoes -56.1783
565
root -0.670384 18.7384 5.52275 10.1973 -0.444728 -1.00876
lowerback 25.6481 -3.49876 0.735472
upperback 3.13913 -5.07312 -5.9854
thorax -11.4296 -2.55422 -5.43242
lowerneck -10.2676 -5.926 -9.65347
upperneck 16.0637 -2.59741 -22.1526
head 6.68049 -3.55548 -5.94411
rclavicle -4.77083e-014 -1.74931e-014
rhumerus 41.985 21.7756 -46.9119
rradius 127.659
rwrist 17.6654
rhand 7.91553 -40.1235
rfingers 7.12502
rthumb 33.1467 292.907
lclavicle -4.77083e-014 -1.74931e-014
lhumerus -35.4402 -13.4833 84.0614
lradius 119.3
lwrist -1.81587
lhand -1.08703 -6.62132
lfingers 7.12502
lthumb 24.5488 21.8249
rfemur -8.57838 2.80294 14.5579
rtibia 10.1883
rfoot -20.3939 -14.1093
rtoes -8.97495
lfemur -20.2088 0.0975705 -12.5887
ltibia 28.4799
lfoot -18.1155 6.83117
ltoes -56.0871
566
root -0.672349 18.7384 5.51605 10.1934 -0.42928 -1.02709
lowerback 25.8095 -3.49135 0.72424
upperback 3.15902 -5.07824 -6.06218
thorax -11.5003 -2.55818 -5.50905
lowerneck -10.164 -5.74649 -9.58813
upperneck 15.5083 -2.48177 -22.282
head 6.48437 -3.4452 -5.95262
rclavicle -3.89618e-014 -5.40694e-014
rhumerus 41.7971 22.0051 -46.8296
rradius 127.839
rwrist 18.5739
rhand 5.72059 -39.3825
rfingers 7.12502
rthumb 31.057 293.227
lclavicle -3.89618e-014 -5.40694e-014
lhumerus -35.3632 -13.6413 83.991
lradius 119.348
lwrist -1.75858
lhand -1.08641 -6.53298
lfingers 7.12502
lthumb 24.5494 21.9132
rfemur -8.5604 2.80778 14.5813
rtibia 10.1137
rfoot -20.3986 -14.0891
rtoes -8.48632
lfemur -20.2192 0.0784686 -12.5579
ltibia 28.458
lfoot -18.1025 6.85496
ltoes -56.1039
